# xmcd
#
# Track frame offsets: 
#        150
#        15323
#        31834
#        46934
#        58375
#        81253
#        97105
#        112261
#        129045
#        142818
#        157427
#        174894
#
# Disc length: 2536 seconds
#
# Revision: 0
# Processed by: cddbd v1.5.2PL0 Copyright (c) Steve Scherf et al.
# Submitted via: ExactAudioCopyFreeDBPlugin 1.0
#
DISCID=9a09e60c
DTITLE=Olivia Newton John - 1974 - Let Me Be There
DYEAR=1974
DGENRE=Country
TTITLE0=Take Me Home Country Roads
TTITLE1=Amoureuse
TTITLE2=Brotherly Love
TTITLE3=Heartbreaker
TTITLE4=Rosewater
TTITLE5=You Ain't Got The Right
TTITLE6=Feeling Best
TTITLE7=Being On The Loosing End
TTITLE8=Let Me Be There
TTITLE9=Music Makes My Day
TTITLE10=Leaving
TTITLE11=If We Try
EXTD=
EXTT0=
EXTT1=
EXTT2=
EXTT3=
EXTT4=
EXTT5=
EXTT6=
EXTT7=
EXTT8=
EXTT9=
EXTT10=
EXTT11=
PLAYORDER=
